<svg id="Layer_1" data-name="Layer 1" xmlns="http://www.w3.org/2000/svg" viewBox="0 0 750.09 750.19"><defs><style>.cls-1{fill:#29abe2;}.cls-2{fill:#139bba;}.cls-3{font-size:150px;font-family:Vazir-Medium-FD, Vazir FD;}.cls-4{fill:#c94949;}.cls-5{fill:#e27676;}.cls-6{fill:#1f9dc9;}</style></defs><title>deadError</title><circle class="cls-1" cx="374.5" cy="374.5" r="374.5"/><rect class="cls-2" x="206" y="348" width="227" height="25" rx="12.5" transform="translate(-107.19 -119.32) rotate(3.98)"/><rect class="cls-2" x="567" y="347" width="227" height="25" rx="12.5" transform="translate(-33.26 -243.52) rotate(13.16)"/><text class="cls-3" transform="translate(455.41 399.65)">×</text><text class="cls-3" transform="translate(169.08 390.13)">×</text><path d="M315.33,592.86c.13-3.8,74.06-18.8,159.34,1.85,69,16.69,120.65,50.72,119.53,54-1.06,3.11-49.32-22.42-126.77-39.41C376.87,589.42,315.21,596.34,315.33,592.86Z" transform="translate(-133 -98)"/><path class="cls-4" d="M460.37,602.1c-28.9,8.61-61.86,51.19-79.14,85.72-8.46,16.91-8.23,22-15.69,26.64-21.19,13.07-64.94-2.36-74.9-28.25-12.27-31.89,28.74-78.66,70.36-95.46a112.47,112.47,0,0,1,36.83-8l25.36,3.2L450,589.6c8.78,1.53,20.19,4,20.21,7.27C470.18,599.44,462.93,601.34,460.37,602.1Z" transform="translate(-133 -98)"/><path class="cls-5" d="M378,617a89.94,89.94,0,0,0-31.74,26.33c-15.53,20.3-20.43,43.09-21.17,42.66s2.81-24.32,16.93-43.57A67.57,67.57,0,0,1,378,617Z" transform="translate(-133 -98)"/><path class="cls-6" d="M876.91,409.81a360.93,360.93,0,0,1,4,106c-12.23,109.85-72.41,183.06-95,208-79.78,88.1-185.42,120.47-256,124-55.75,2.79-113-11-113-11a392,392,0,0,1-63-21c-33.72-14.11-50.15-25.94-60-34-3-2.43-5.38-4.54-7-6,43.46,13.82,164.67,45.81,299-5C819,682.67,873.38,427.8,876.91,409.81Z" transform="translate(-133 -98)"/></svg>