<svg xmlns="http://www.w3.org/2000/svg" viewBox="0 0 171 147.82"><defs><style>.cls-1{fill:#29a1d6;}</style></defs><title>Asset 5</title><g id="Layer_2" data-name="Layer 2"><g id="Layer_1-2" data-name="Layer 1"><g id="menu_ICON_W_copy" data-name="menu_ICON_W copy"><line class="cls-1" x1="171" x2="171"/><line class="cls-1" y1="59.38" y2="59.38"/><line class="cls-1" x1="171" y1="56.66" x2="171" y2="56.67"/><line class="cls-1" x1="18.04" y1="129.58" x2="18.04" y2="129.58"/><line class="cls-1" x1="171" y1="113.33" x2="171" y2="113.33"/><rect class="cls-1" x="22.26" y="36.51" width="20.79" height="20.79" rx="10.4"/><rect class="cls-1" x="67.98" y="36.51" width="20.79" height="20.79" rx="10.4"/><path class="cls-1" d="M124.1,36.67h0a10.31,10.31,0,0,1,10.4,10.24h0a10.32,10.32,0,0,1-10.4,10.24h0a10.32,10.32,0,0,1-10.39-10.24h0A10.31,10.31,0,0,1,124.1,36.67Z"/><rect class="cls-1" x="22.26" y="81.77" width="20.79" height="20.79" rx="10.4"/><rect class="cls-1" x="67.98" y="81.77" width="20.79" height="20.79" rx="10.4"/><rect class="cls-1" x="113.71" y="81.77" width="20.79" height="20.79" rx="10.4"/><rect class="cls-1" x="22.26" y="127.03" width="20.79" height="20.79" rx="10.4"/><rect class="cls-1" x="67.98" y="127.03" width="20.79" height="20.79" rx="10.4"/><rect class="cls-1" x="113.71" y="127.03" width="20.79" height="20.79" rx="10.4"/></g></g></g></svg>